name rise38.3101peak57.3503fall81.6963.mot
datacolumns 19
datarows 14
range 24.14324600000000 24.16491000000000
endheader
time	ground_force1_vx	ground_force1_vy	ground_force1_vz	ground_force1_px	ground_force1_py	ground_force1_pz	ground_force2_vx	ground_force2_vy	ground_force2_vz	ground_force2_px	ground_force2_py	ground_force2_pz	ground_torque1_x	ground_torque1_y	ground_torque1_z	ground_torque2_x	ground_torque2_y	ground_torque2_z	
24.14324600000000	-39.60405800000000	799.49068000000000	53.75172200000000	0.15159400000000	0.00000000000000	0.09352000000000	-8.39654600000000	40.33650900000000	5.76626100000000	0.38430300000000	0.00000000000000	-0.08575500000000	0.00000000000000	23.62447300000000	0.00000000000000	0.00000000000000	3.78934700000000	0.00000000000000	
24.14491000000000	-39.82863400000000	797.48388599999998	53.52345500000000	0.15097700000000	0.00000000000000	0.09346000000000	-9.28554600000000	46.87181700000000	6.52438700000000	0.38799600000000	0.00000000000000	-0.08597400000000	0.00000000000000	23.49894200000000	0.00000000000000	0.00000000000000	4.36116800000000	0.00000000000000	
24.14657900000000	-40.07525300000000	795.35893999999996	53.26829800000000	0.15036300000000	0.00000000000000	0.09339600000000	-10.03645700000000	53.38413200000000	7.22749600000000	0.39154100000000	0.00000000000000	-0.08618300000000	0.00000000000000	23.37156400000000	0.00000000000000	0.00000000000000	4.91486300000000	0.00000000000000	
24.14824300000000	-40.34465600000000	793.11572899999999	52.98618800000000	0.14975400000000	0.00000000000000	0.09332500000000	-10.62654100000000	59.78170300000000	7.86025300000000	0.39495600000000	0.00000000000000	-0.08638200000000	0.00000000000000	23.24256800000000	0.00000000000000	0.00000000000000	5.43975100000000	0.00000000000000	
24.14990800000000	-40.63751200000000	790.75418000000002	52.67711400000000	0.14915200000000	0.00000000000000	0.09324900000000	-11.04174500000000	65.99803500000000	8.41211700000000	0.39825700000000	0.00000000000000	-0.08657300000000	0.00000000000000	23.11217500000000	0.00000000000000	0.00000000000000	5.92783000000000	0.00000000000000	
24.15157500000000	-40.95442200000000	788.27426400000002	52.34111500000000	0.14855600000000	0.00000000000000	0.09316700000000	-11.27663600000000	71.99357900000000	8.87745000000000	0.40145600000000	0.00000000000000	-0.08675800000000	0.00000000000000	22.98060200000000	0.00000000000000	0.00000000000000	6.37397500000000	0.00000000000000	
24.15324300000000	-41.29591200000000	785.67597699999999	51.97828300000000	0.14796700000000	0.00000000000000	0.09307900000000	-11.33364400000000	77.75494999999999	9.25520900000000	0.40456200000000	0.00000000000000	-0.08693800000000	0.00000000000000	22.84805600000000	0.00000000000000	0.00000000000000	6.77586700000000	0.00000000000000	
24.15491000000000	-41.66242400000000	782.95934299999999	51.58875700000000	0.14738700000000	0.00000000000000	0.09298400000000	-11.22178900000000	83.29210800000000	9.54831000000000	0.40758400000000	0.00000000000000	-0.08711300000000	0.00000000000000	22.71473600000000	0.00000000000000	0.00000000000000	7.13370300000000	0.00000000000000	
24.15658300000000	-42.05432100000000	780.12439900000004	51.17273000000000	0.14681500000000	0.00000000000000	0.09288400000000	-10.95508800000000	88.63411900000000	9.76277700000000	0.41052700000000	0.00000000000000	-0.08728500000000	0.00000000000000	22.58082700000000	0.00000000000000	0.00000000000000	7.44975100000000	0.00000000000000	
24.15825000000000	-42.47187200000000	777.17119600000001	50.73044200000000	0.14625200000000	0.00000000000000	0.09277800000000	-10.55082300000000	93.82407200000000	9.90678700000000	0.41339400000000	0.00000000000000	-0.08745500000000	0.00000000000000	22.44650600000000	0.00000000000000	0.00000000000000	7.72780700000000	0.00000000000000	
24.15991300000000	-42.91525600000000	774.09978400000000	50.26218100000000	0.14570000000000	0.00000000000000	0.09266500000000	-10.02784800000000	98.91373600000000	9.98970100000000	0.41619100000000	0.00000000000000	-0.08762300000000	0.00000000000000	22.31193300000000	0.00000000000000	0.00000000000000	7.97261700000000	0.00000000000000	
24.16158100000000	-43.38455800000000	770.91021499999999	49.76828400000000	0.14515800000000	0.00000000000000	0.09254600000000	-9.40505500000000	103.95842200000000	10.02116300000000	0.41891800000000	0.00000000000000	-0.08779000000000	0.00000000000000	22.17725300000000	0.00000000000000	0.00000000000000	8.18932400000000	0.00000000000000	
24.16325000000000	-43.87975800000000	767.60253000000000	49.24913400000000	0.14462700000000	0.00000000000000	0.09242100000000	-8.70010000000000	109.01244000000000	10.01034100000000	0.42157800000000	0.00000000000000	-0.08795600000000	0.00000000000000	22.04259800000000	0.00000000000000	0.00000000000000	8.38297100000000	0.00000000000000	
24.16491000000000	-44.40073700000000	764.17675599999995	48.70515900000000	0.14410700000000	0.00000000000000	0.09228900000000	-7.92844500000000	114.12538800000000	9.96532100000000	0.42417200000000	0.00000000000000	-0.08812200000000	0.00000000000000	21.90808100000000	0.00000000000000	0.00000000000000	8.55809800000000	0.00000000000000	
